<svg xmlns="http://www.w3.org/2000/svg" width="916" height="401" fill="none" viewBox="0 0 916 401">
  <g filter="url(#a)">
    <path fill="#C8B5EF" d="M82.096 275.432h21.76l20.096 59.136-2.944-1.28 17.536-43.648 8.576 25.472-27.136 58.24-37.888-97.92Zm47.232 0h18.432l23.168 57.216-3.328-.512 17.28-56.704h19.968l-36.352 97.664-39.168-97.664Z"/>
    <path fill="#9E84D6" d="M221.928 343.656c0-4.864 1.152-9.301 3.456-13.312 2.389-4.011 5.589-7.168 9.6-9.472 4.096-2.389 8.661-3.584 13.696-3.584 5.12 0 9.685 1.195 13.696 3.584 4.011 2.304 7.168 5.461 9.472 9.472 2.304 4.011 3.456 8.448 3.456 13.312 0 4.864-1.152 9.301-3.456 13.312-2.304 4.011-5.504 7.211-9.6 9.6-4.011 2.304-8.533 3.456-13.568 3.456-5.12 0-9.685-1.109-13.696-3.328-4.011-2.304-7.211-5.419-9.6-9.344-2.304-4.011-3.456-8.576-3.456-13.696Zm6.016.128c0 3.925.896 7.509 2.688 10.752 1.877 3.157 4.352 5.675 7.424 7.552 3.157 1.877 6.656 2.816 10.496 2.816 3.84 0 7.296-.939 10.368-2.816 3.157-1.877 5.632-4.395 7.424-7.552 1.877-3.243 2.816-6.827 2.816-10.752 0-3.925-.939-7.467-2.816-10.624-1.792-3.243-4.267-5.803-7.424-7.68-3.072-1.963-6.528-2.944-10.368-2.944-3.925 0-7.467 1.024-10.624 3.072-3.072 1.963-5.504 4.565-7.296 7.808-1.792 3.243-2.688 6.699-2.688 10.368Zm76.871-24.832.64 15.36-.768-1.92a19.905 19.905 0 0 1 5.248-7.936c2.389-2.219 5.035-3.925 7.936-5.12 2.987-1.195 5.845-1.792 8.576-1.792l-.256 5.888c-3.84 0-7.339.853-10.496 2.56-3.072 1.707-5.547 4.011-7.424 6.912-1.792 2.816-2.688 6.016-2.688 9.6V369h-6.016v-50.048h5.248ZM349.717 369v-97.28h6.016V369h-6.016Zm17.536-32.512L390.549 369h-7.04l-20.48-29.184 4.224-3.328Zm-13.568 14.336-.512-6.016 30.592-26.88 3.712 3.2-33.792 29.696Zm71.958 19.2c-2.901 0-5.931-.512-9.088-1.536-3.157-1.109-5.717-2.859-7.68-5.248l2.816-3.968c1.707 1.792 3.712 3.243 6.016 4.352a18.972 18.972 0 0 0 7.552 1.536c1.963 0 3.797-.256 5.504-.768 1.792-.597 3.243-1.579 4.352-2.944 1.109-1.365 1.664-3.2 1.664-5.504 0-2.389-.683-4.224-2.048-5.504-1.28-1.28-2.944-2.304-4.992-3.072a60.067 60.067 0 0 0-6.272-2.304c-3.669-1.195-6.699-2.816-9.088-4.864-2.304-2.048-3.456-4.949-3.456-8.704 0-2.731.64-5.12 1.92-7.168 1.365-2.048 3.2-3.627 5.504-4.736 2.304-1.195 4.907-1.792 7.808-1.792 2.645 0 5.248.427 7.808 1.28 2.645.853 5.035 2.304 7.168 4.352l-2.688 4.224c-1.365-1.877-3.2-3.157-5.504-3.84-2.219-.683-4.181-1.067-5.888-1.152-1.451 0-2.987.299-4.608.896a10.561 10.561 0 0 0-3.968 2.688c-1.024 1.109-1.536 2.603-1.536 4.48 0 1.963.555 3.584 1.664 4.864 1.109 1.195 2.517 2.176 4.224 2.944 1.792.768 3.627 1.493 5.504 2.176a41.811 41.811 0 0 1 6.912 2.816c2.219 1.024 4.011 2.432 5.376 4.224 1.451 1.707 2.176 4.011 2.176 6.912s-.64 5.547-1.92 7.936c-1.28 2.304-3.2 4.139-5.76 5.504-2.475 1.28-5.632 1.92-9.472 1.92Zm46.741-73.088h6.144v22.656h15.488v4.864h-15.488V369h-6.144v-44.544H461.76v-4.864h10.624v-22.656Zm63.769 73.088c-4.779 0-9.131-1.067-13.056-3.2-3.84-2.219-6.912-5.291-9.216-9.216-2.219-3.925-3.328-8.491-3.328-13.696 0-5.547 1.195-10.283 3.584-14.208 2.389-4.011 5.632-7.04 9.728-9.088 4.096-2.133 8.747-3.2 13.952-3.2 4.437 0 8.619 1.323 12.544 3.968 4.011 2.645 6.869 5.973 8.576 9.984l-.896 1.792.768-14.208h5.376V369h-6.016v-15.488l1.28 2.304c-.597 1.707-1.621 3.413-3.072 5.12-1.451 1.621-3.243 3.157-5.376 4.608-2.048 1.365-4.352 2.475-6.912 3.328-2.475.768-5.12 1.152-7.936 1.152Zm1.28-5.12c3.755 0 7.125-.768 10.112-2.304 3.072-1.621 5.547-3.84 7.424-6.656 1.877-2.816 2.944-6.059 3.2-9.728v-7.168a19.543 19.543 0 0 0-4.096-8.448c-1.963-2.475-4.395-4.437-7.296-5.888-2.901-1.451-6.059-2.176-9.472-2.176-3.755 0-7.211.896-10.368 2.688-3.157 1.707-5.675 4.139-7.552 7.296-1.877 3.157-2.816 6.869-2.816 11.136 0 3.925.939 7.509 2.816 10.752 1.877 3.157 4.395 5.717 7.552 7.68 3.243 1.877 6.741 2.816 10.496 2.816Zm60.876-67.968h6.144v22.656h15.488v4.864h-15.488V369h-6.144v-44.544h-10.624v-4.864h10.624v-22.656Zm43.033 22.016h6.016V369h-6.016v-50.048Zm-1.28-18.432c0-1.195.469-2.176 1.408-2.944.939-.853 1.963-1.28 3.072-1.28 1.195 0 2.219.427 3.072 1.28.853.768 1.28 1.749 1.28 2.944 0 1.28-.427 2.347-1.28 3.2-.853.768-1.877 1.152-3.072 1.152-1.109 0-2.133-.427-3.072-1.28-.939-.853-1.408-1.877-1.408-3.072Zm31.566 43.136c0-4.864 1.152-9.301 3.456-13.312 2.389-4.011 5.589-7.168 9.6-9.472 4.096-2.389 8.661-3.584 13.696-3.584 5.12 0 9.685 1.195 13.696 3.584 4.011 2.304 7.168 5.461 9.472 9.472 2.304 4.011 3.456 8.448 3.456 13.312 0 4.864-1.152 9.301-3.456 13.312-2.304 4.011-5.504 7.211-9.6 9.6-4.011 2.304-8.533 3.456-13.568 3.456-5.12 0-9.685-1.109-13.696-3.328-4.011-2.304-7.211-5.419-9.6-9.344-2.304-4.011-3.456-8.576-3.456-13.696Zm6.016.128c0 3.925.896 7.509 2.688 10.752 1.877 3.157 4.352 5.675 7.424 7.552 3.157 1.877 6.656 2.816 10.496 2.816 3.84 0 7.296-.939 10.368-2.816 3.157-1.877 5.632-4.395 7.424-7.552 1.877-3.243 2.816-6.827 2.816-10.752 0-3.925-.939-7.467-2.816-10.624-1.792-3.243-4.267-5.803-7.424-7.68-3.072-1.963-6.528-2.944-10.368-2.944-3.925 0-7.467 1.024-10.624 3.072-3.072 1.963-5.504 4.565-7.296 7.808-1.792 3.243-2.688 6.699-2.688 10.368Zm76.871-24.832.64 15.744-.768-3.072c1.451-4.352 4.181-7.765 8.192-10.24 4.096-2.56 8.619-3.84 13.568-3.84 4.693 0 8.491 1.408 11.392 4.224 2.901 2.731 4.395 6.315 4.48 10.752V369h-6.144v-34.816c-.085-3.243-1.109-5.931-3.072-8.064s-4.821-3.243-8.576-3.328c-3.328 0-6.443.811-9.344 2.432s-5.248 3.883-7.04 6.784c-1.707 2.901-2.56 6.272-2.56 10.112V369h-6.016v-50.048h5.248Z"/>
  </g>
  <g filter="url(#b)">
    <path fill="#C8B5EF" d="m105.536 233 42.496-97.92h1.024L191.552 233h-21.504l-27.136-68.864 13.44-9.216L123.84 233h-18.304Zm29.056-34.048h28.288l6.528 15.616h-40.576l5.76-15.616Z"/>
    <path fill="#9E84D6" d="M226.661 234.408c-4.693 0-8.448-1.365-11.264-4.096-2.816-2.816-4.309-6.443-4.48-10.88v-36.48h6.016v34.688c.171 3.243 1.195 5.931 3.072 8.064 1.963 2.133 4.864 3.285 8.704 3.456 3.243 0 6.272-.853 9.088-2.56 2.816-1.707 5.077-4.011 6.784-6.912 1.792-2.987 2.688-6.357 2.688-10.112v-26.624h6.016V233h-5.376l-.64-15.744.896 3.456c-.853 2.56-2.389 4.907-4.608 7.04-2.133 2.048-4.693 3.669-7.68 4.864-2.901 1.195-5.973 1.792-9.216 1.792Zm76.261-.384c-4.693 0-8.96-1.109-12.8-3.328-3.84-2.304-6.912-5.461-9.216-9.472-2.219-4.011-3.328-8.533-3.328-13.568 0-5.376 1.152-10.027 3.456-13.952 2.304-3.925 5.419-6.955 9.344-9.088 4.011-2.133 8.405-3.2 13.184-3.2s9.301 1.237 13.568 3.712c4.352 2.475 7.509 5.717 9.472 9.728l-1.024 2.816V135.72h6.016V233h-6.144v-15.36l1.28 2.816c-2.133 4.011-5.333 7.296-9.6 9.856-4.267 2.475-9.003 3.712-14.208 3.712Zm1.536-5.248c3.84 0 7.296-.811 10.368-2.432 3.072-1.707 5.547-3.968 7.424-6.784 1.877-2.901 2.944-6.144 3.2-9.728v-6.4a19.321 19.321 0 0 0-3.968-8.704 22.023 22.023 0 0 0-7.424-6.016c-2.901-1.536-6.101-2.304-9.6-2.304-3.84 0-7.339.896-10.496 2.688-3.157 1.792-5.675 4.267-7.552 7.424-1.877 3.157-2.816 6.827-2.816 11.008 0 3.925.939 7.509 2.816 10.752 1.877 3.157 4.395 5.717 7.552 7.68 3.243 1.877 6.741 2.816 10.496 2.816Zm56.259-45.824h6.016V233h-6.016v-50.048Zm-1.28-18.432c0-1.195.469-2.176 1.408-2.944.939-.853 1.963-1.28 3.072-1.28 1.195 0 2.219.427 3.072 1.28.853.768 1.28 1.749 1.28 2.944 0 1.28-.427 2.347-1.28 3.2-.853.768-1.877 1.152-3.072 1.152-1.109 0-2.133-.427-3.072-1.28-.939-.853-1.408-1.877-1.408-3.072Zm31.566 43.136c0-4.864 1.152-9.301 3.456-13.312 2.389-4.011 5.589-7.168 9.6-9.472 4.096-2.389 8.661-3.584 13.696-3.584 5.12 0 9.685 1.195 13.696 3.584 4.011 2.304 7.168 5.461 9.472 9.472 2.304 4.011 3.456 8.448 3.456 13.312 0 4.864-1.152 9.301-3.456 13.312-2.304 4.011-5.504 7.211-9.6 9.6-4.011 2.304-8.533 3.456-13.568 3.456-5.12 0-9.685-1.109-13.696-3.328-4.011-2.304-7.211-5.419-9.6-9.344-2.304-4.011-3.456-8.576-3.456-13.696Zm6.016.128c0 3.925.896 7.509 2.688 10.752 1.877 3.157 4.352 5.675 7.424 7.552 3.157 1.877 6.656 2.816 10.496 2.816 3.84 0 7.296-.939 10.368-2.816 3.157-1.877 5.632-4.395 7.424-7.552 1.877-3.243 2.816-6.827 2.816-10.752 0-3.925-.939-7.467-2.816-10.624-1.792-3.243-4.267-5.803-7.424-7.68-3.072-1.963-6.528-2.944-10.368-2.944-3.925 0-7.467 1.024-10.624 3.072-3.072 1.963-5.504 4.565-7.296 7.808-1.792 3.243-2.688 6.699-2.688 10.368Z"/>
  </g>
  <g filter="url(#c)">
    <path fill="#C8B5EF" d="M173.644 30.576a69.735 69.735 0 0 0-11.008-4.864c-3.669-1.28-7.125-1.92-10.368-1.92-4.011 0-7.168.81-9.472 2.432-2.304 1.621-3.456 4.053-3.456 7.296 0 2.219.853 4.224 2.56 6.016 1.792 1.707 4.053 3.243 6.784 4.608a98.7 98.7 0 0 0 8.704 3.712 62.094 62.094 0 0 1 8.064 3.712 27.863 27.863 0 0 1 7.296 5.248c2.133 2.048 3.84 4.65 5.12 7.808 1.28 3.072 1.92 6.87 1.92 11.392 0 4.779-1.237 9.216-3.712 13.312s-6.101 7.424-10.88 9.984c-4.779 2.475-10.667 3.712-17.664 3.712-3.584 0-7.253-.341-11.008-1.024a63.767 63.767 0 0 1-10.88-3.328 59.076 59.076 0 0 1-10.368-5.76l8.192-14.464a50.092 50.092 0 0 0 7.168 4.352 49.065 49.065 0 0 0 7.936 2.816c2.645.683 5.077 1.024 7.296 1.024a25.52 25.52 0 0 0 6.656-.896c2.304-.683 4.181-1.792 5.632-3.328 1.536-1.536 2.304-3.67 2.304-6.4 0-1.877-.64-3.584-1.92-5.12-1.195-1.536-2.859-2.944-4.992-4.224-2.048-1.28-4.309-2.39-6.784-3.328a128.517 128.517 0 0 1-8.96-3.84 50.208 50.208 0 0 1-8.704-5.248c-2.645-2.133-4.821-4.736-6.528-7.808-1.621-3.157-2.432-6.997-2.432-11.52 0-5.461 1.195-10.197 3.584-14.208 2.475-4.01 5.931-7.168 10.368-9.472 4.437-2.39 9.557-3.712 15.36-3.968 7.595 0 13.739.896 18.432 2.688 4.779 1.792 9.045 3.925 12.8 6.4l-7.04 14.208Zm82.305-22.784c7.765 0 14.336 1.323 19.712 3.968 5.376 2.56 9.472 6.23 12.288 11.008 2.816 4.693 4.224 10.283 4.224 16.768 0 3.84-.597 7.723-1.792 11.648-1.109 3.84-2.944 7.339-5.504 10.496-2.475 3.157-5.845 5.717-10.112 7.68-4.181 1.877-9.344 2.816-15.488 2.816h-13.312V102h-18.56V7.792h28.544Zm3.2 46.336c2.816 0 5.163-.47 7.04-1.408 1.877-1.024 3.328-2.261 4.352-3.712 1.109-1.536 1.877-3.115 2.304-4.736.512-1.621.768-3.03.768-4.224 0-.939-.171-2.176-.512-3.712-.256-1.621-.853-3.243-1.792-4.864-.939-1.621-2.389-2.987-4.352-4.096-1.877-1.11-4.437-1.664-7.68-1.664h-13.312v28.416h13.184ZM318.096 102l42.496-97.92h1.024L404.112 102h-21.504l-27.136-68.864 13.44-9.216L336.4 102h-18.304Zm29.056-34.048h28.288l6.528 15.616h-40.576l5.76-15.616Zm86.108-60.16h63.488v17.92h-22.912V102h-18.56V25.712H433.26V7.792Zm110.84 0h18.56V102H544.1V7.792ZM605.791 102l42.496-97.92h1.024L691.807 102h-21.504l-27.136-68.864 13.44-9.216L624.095 102h-18.304Zm29.056-34.048h28.288l6.528 15.616h-40.576l5.76-15.616ZM734.98 7.792h18.56V84.08h44.288V102H734.98V7.792Z"/>
  </g>
  <defs>
    <filter id="a" width="733.923" height="125.632" x="78.096" y="267.72" color-interpolation-filters="sRGB" filterUnits="userSpaceOnUse">
      <feFlood flood-opacity="0" result="BackgroundImageFix"/>
      <feColorMatrix in="SourceAlpha" result="hardAlpha" values="0 0 0 0 0 0 0 0 0 0 0 0 0 0 0 0 0 0 127 0"/>
      <feOffset dx="8" dy="8"/>
      <feGaussianBlur stdDeviation="6"/>
      <feComposite in2="hardAlpha" operator="out"/>
      <feColorMatrix values="0 0 0 0 0 0 0 0 0 0 0 0 0 0 0 0 0 0 0.4 0"/>
      <feBlend in2="BackgroundImageFix" result="effect1_dropShadow_42_658"/>
      <feBlend in="SourceGraphic" in2="effect1_dropShadow_42_658" result="shape"/>
    </filter>
    <filter id="b" width="362.843" height="123.328" x="101.536" y="131.08" color-interpolation-filters="sRGB" filterUnits="userSpaceOnUse">
      <feFlood flood-opacity="0" result="BackgroundImageFix"/>
      <feColorMatrix in="SourceAlpha" result="hardAlpha" values="0 0 0 0 0 0 0 0 0 0 0 0 0 0 0 0 0 0 127 0"/>
      <feOffset dx="8" dy="8"/>
      <feGaussianBlur stdDeviation="6"/>
      <feComposite in2="hardAlpha" operator="out"/>
      <feColorMatrix values="0 0 0 0 0 0 0 0 0 0 0 0 0 0 0 0 0 0 0.4 0"/>
      <feBlend in2="BackgroundImageFix" result="effect1_dropShadow_42_658"/>
      <feBlend in="SourceGraphic" in2="effect1_dropShadow_42_658" result="shape"/>
    </filter>
    <filter id="c" width="706.552" height="122.944" x="111.276" y=".08" color-interpolation-filters="sRGB" filterUnits="userSpaceOnUse">
      <feFlood flood-opacity="0" result="BackgroundImageFix"/>
      <feColorMatrix in="SourceAlpha" result="hardAlpha" values="0 0 0 0 0 0 0 0 0 0 0 0 0 0 0 0 0 0 127 0"/>
      <feOffset dx="8" dy="8"/>
      <feGaussianBlur stdDeviation="6"/>
      <feComposite in2="hardAlpha" operator="out"/>
      <feColorMatrix values="0 0 0 0 0 0 0 0 0 0 0 0 0 0 0 0 0 0 0.4 0"/>
      <feBlend in2="BackgroundImageFix" result="effect1_dropShadow_42_658"/>
      <feBlend in="SourceGraphic" in2="effect1_dropShadow_42_658" result="shape"/>
    </filter>
  </defs>
</svg>
